<svg width="21" height="21" viewBox="0 0 21 21" fill="none" xmlns="http://www.w3.org/2000/svg">
<g id="Group 12">
<g id="Group">
<path id="Vector" d="M20.53 10.265C20.53 4.59579 15.9342 0 10.265 0C4.59579 0 0 4.59579 0 10.265C0 15.3886 3.75378 19.6352 8.66109 20.4053V13.2322H6.05475V10.265H8.66109V8.00349C8.66109 5.43083 10.1936 4.00976 12.5383 4.00976C13.6614 4.00976 14.8361 4.21025 14.8361 4.21025V6.7364H13.5417C12.2666 6.7364 11.8689 7.52765 11.8689 8.33943V10.265H14.7158L14.2607 13.2322H11.8689V20.4053C16.7763 19.6352 20.53 15.3886 20.53 10.265Z" fill="#1877F2"/>
<path id="Vector_2" d="M14.2607 13.2322L14.7158 10.265H11.8688V8.33945C11.8688 7.52767 12.2665 6.73642 13.5417 6.73642H14.8361V4.21027C14.8361 4.21027 13.6613 4.00978 12.5383 4.00978C10.1935 4.00978 8.66104 5.43084 8.66104 8.00351V10.265H6.05469V13.2322H8.66104V20.4053C9.18363 20.4873 9.71929 20.53 10.2649 20.53C10.8106 20.53 11.3462 20.4873 11.8688 20.4053V13.2322H14.2607Z" fill="white"/>
</g>
</g>
</svg>
