<svg width="21" height="21" viewBox="0 0 21 21" fill="none" xmlns="http://www.w3.org/2000/svg">
<g id="Group 11">
<g id="Group">
<path id="Vector" d="M20.5339 10.7266C20.5339 10.0192 20.4654 9.28888 20.3513 8.60423H10.4695V12.6437H16.1293C15.9011 13.9445 15.1479 15.0856 14.0297 15.8159L17.4073 18.4404C19.3928 16.5918 20.5339 13.8989 20.5339 10.7266Z" fill="#4280EF"/>
<path id="Vector_2" d="M10.4695 20.9508C13.2994 20.9508 15.6728 20.0151 17.4073 18.4176L14.0297 15.8159C13.094 16.4549 11.8844 16.82 10.4695 16.82C7.73086 16.82 5.42586 14.9715 4.58146 12.5067L1.11255 15.1769C2.89265 18.7142 6.49848 20.9508 10.4695 20.9508Z" fill="#34A353"/>
<path id="Vector_3" d="M4.58147 12.4839C4.14785 11.1831 4.14785 9.76812 4.58147 8.46728L1.11256 5.77431C-0.370854 8.74114 -0.370854 12.2329 1.11256 15.1769L4.58147 12.4839Z" fill="#F6B704"/>
<path id="Vector_4" d="M10.4695 4.15397C11.9529 4.13114 13.4135 4.70169 14.4861 5.72867L17.4757 2.7162C15.5815 0.936098 13.0711 -0.0224158 10.4695 0.000405935C6.49848 0.000405935 2.89265 2.23694 1.11255 5.77431L4.58146 8.46728C5.42586 5.97971 7.73086 4.15397 10.4695 4.15397Z" fill="#E54335"/>
</g>
</g>
</svg>
